<?xml version="1.0" encoding="UTF-8" standalone="no"?>
<!-- Created with Inkscape (http://www.inkscape.org/) -->

<svg
   width="77.919411mm"
   height="58.40049mm"
   viewBox="0 0 77.919411 58.40049"
   version="1.1"
   id="svg1"
   xml:space="preserve"
   xmlns:inkscape="http://www.inkscape.org/namespaces/inkscape"
   xmlns:sodipodi="http://sodipodi.sourceforge.net/DTD/sodipodi-0.dtd"
   xmlns="http://www.w3.org/2000/svg"
   xmlns:svg="http://www.w3.org/2000/svg"><sodipodi:namedview
     id="namedview1"
     pagecolor="#ffffff"
     bordercolor="#000000"
     borderopacity="0.25"
     inkscape:showpageshadow="2"
     inkscape:pageopacity="0.0"
     inkscape:pagecheckerboard="0"
     inkscape:deskcolor="#d1d1d1"
     inkscape:document-units="mm" /><defs
     id="defs1" /><g
     inkscape:label="Camada 1"
     inkscape:groupmode="layer"
     id="layer1"
     transform="translate(-69.807985,-135.10958)"><g
       id="g5"
       style="fill:#dc3545;fill-opacity:1;stroke:none"><path
         d="m 91.596476,135.10958 c -4.668106,2.49957 -8.758922,5.66626 -12.049393,9.35912 -3.313354,3.71853 -6.075219,8.29744 -7.671367,12.71705 -1.017127,2.81635 -1.580617,5.2892 -1.942517,8.52196 -0.166465,1.48698 -0.167104,5.17768 -0.001,6.52467 0.440273,3.57174 1.232622,6.22502 2.683557,8.98447 0.609293,1.15878 1.158125,2.01089 2.124935,3.29954 0.722577,0.9631 1.055668,1.3427 2.183329,2.48925 2.079495,2.11433 4.061511,3.57641 6.329329,4.66897 2.259415,1.08851 4.051699,1.59201 6.397026,1.79627 1.013519,0.0883 3.186219,0.0203 4.256588,-0.13281 3.226066,-0.46159 6.096087,-1.80822 8.414987,-3.94808 1.51889,-1.40162 2.5873,-2.80784 3.3476,-4.40748 1.6443,-3.45952 1.65959,-7.77971 0.0393,-11.15229 -1.22707,-2.55405 -3.55161,-4.8489 -6.13812,-6.06062 -1.688509,-0.79102 -3.235494,-1.12964 -5.159892,-1.12964 -1.469089,0 -2.729526,0.20013 -4.254004,0.67644 -2.221499,0.69408 -2.723633,0.83006 -3.66851,0.99064 -1.260492,0.21421 -2.041855,0.14954 -2.663403,-0.22066 -1.17416,-0.69935 -2.06545,-2.23309 -2.359546,-4.06073 -0.92273,-5.73421 -3.214389,-20.45837 10.131164,-28.91607 z"
         style="fill:#dc3545;fill-opacity:1;stroke:none"
         id="path4"
         inkscape:export-filename="aspas.svg"
         inkscape:export-xdpi="96"
         inkscape:export-ydpi="96" /><path
         d="m 132.41037,135.10958 c -4.66811,2.49957 -8.75893,5.66626 -12.0494,9.35912 -3.31335,3.71853 -6.07522,8.29744 -7.67136,12.71705 -1.01713,2.81635 -1.58062,5.2892 -1.94252,8.52196 -0.16647,1.48698 -0.1671,5.17768 -0.001,6.52467 0.44027,3.57174 1.23262,6.22502 2.68356,8.98447 0.60929,1.15878 1.15812,2.01089 2.12493,3.29954 0.72258,0.9631 1.05567,1.3427 2.18333,2.48925 2.0795,2.11433 4.06151,3.57641 6.32933,4.66897 2.25941,1.08851 4.0517,1.59201 6.39703,1.79627 1.01351,0.0883 3.18621,0.0203 4.25658,-0.13281 3.22607,-0.46159 6.09609,-1.80822 8.41499,-3.94808 1.51889,-1.40162 2.5873,-2.80784 3.3476,-4.40748 1.6443,-3.45952 1.65959,-7.77971 0.0393,-11.15229 -1.22707,-2.55405 -3.55161,-4.8489 -6.13812,-6.06062 -1.68851,-0.79102 -3.23549,-1.12964 -5.15989,-1.12964 -1.46909,0 -2.72953,0.20013 -4.25401,0.67644 -2.22149,0.69408 -2.72363,0.83006 -3.66851,0.99064 -1.26049,0.21421 -2.04185,0.14954 -2.6634,-0.22066 -1.17416,-0.69935 -2.06545,-2.23309 -2.35954,-4.06073 -0.92273,-5.73421 -3.21439,-20.45837 10.13116,-28.91607 z"
         id="path5"
         style="fill:#dc3545;fill-opacity:1;stroke:none" /></g></g></svg>
