<?xml version="1.0" encoding="UTF-8" standalone="no"?>
<!-- Created with Inkscape (http://www.inkscape.org/) -->

<svg
   width="42.559681mm"
   height="92.029366mm"
   viewBox="0 0 42.559681 92.029366"
   version="1.1"
   id="svg1"
   xml:space="preserve"
   xmlns:inkscape="http://www.inkscape.org/namespaces/inkscape"
   xmlns:sodipodi="http://sodipodi.sourceforge.net/DTD/sodipodi-0.dtd"
   xmlns="http://www.w3.org/2000/svg"
   xmlns:svg="http://www.w3.org/2000/svg"><sodipodi:namedview
     id="namedview1"
     pagecolor="#ffffff"
     bordercolor="#000000"
     borderopacity="0.25"
     inkscape:showpageshadow="2"
     inkscape:pageopacity="0.0"
     inkscape:pagecheckerboard="0"
     inkscape:deskcolor="#d1d1d1"
     inkscape:document-units="mm" /><defs
     id="defs1" /><g
     inkscape:label="Camada 1"
     inkscape:groupmode="layer"
     id="layer1"
     transform="translate(-10.689444,-119.91797)"><path
       d="m 42.10045,119.93331 c -3.613335,0.0818 -7.36595,0.49375 -9.834025,1.11983 -5.003785,1.26932 -8.501081,3.85014 -10.294979,7.59747 -1.510798,3.15594 -1.775403,5.14061 -1.836063,13.7883 l -0.05323,7.59489 -4.696354,5.1e-4 -4.696354,5.2e-4 v 8.03672 8.03672 l 4.696354,0.23151 4.696354,0.23151 0.0677,22.68802 0.0677,22.68802 8.134387,-0.002 c 4.473946,-0.001 8.759461,-0.0772 9.52345,-0.16898 v -5.2e-4 l 1.389063,-0.16692 v -22.84518 -22.8446 l 6.27972,-0.0708 6.279203,-0.0713 0.575159,-6.48229 c 0.316309,-3.56526 0.637374,-7.10736 0.713134,-7.87135 l 0.13746,-1.38907 H 46.091943 38.93424 l 0.114722,-5.4901 c 0.1219,-5.81778 0.225898,-6.32836 1.447457,-7.12876 0.588889,-0.38585 1.49867,-0.45027 6.539135,-0.46302 l 5.85494,-0.015 0.06976,-8.40053 0.07028,-8.40052 -1.922363,-0.005 c -1.057069,-0.003 -3.529193,-0.0775 -5.493721,-0.16588 -1.120662,-0.0504 -2.309553,-0.0598 -3.513998,-0.0326 z"
       id="path12"
       style="fill:#dc3545;fill-opacity:1" /></g></svg>
