<?xml version="1.0" encoding="UTF-8" standalone="no"?>
<!-- Created with Inkscape (http://www.inkscape.org/) -->

<svg
   width="97.374336mm"
   height="97.336502mm"
   viewBox="0 0 97.374336 97.336502"
   version="1.1"
   id="svg1"
   xml:space="preserve"
   xmlns:inkscape="http://www.inkscape.org/namespaces/inkscape"
   xmlns:sodipodi="http://sodipodi.sourceforge.net/DTD/sodipodi-0.dtd"
   xmlns="http://www.w3.org/2000/svg"
   xmlns:svg="http://www.w3.org/2000/svg"><sodipodi:namedview
     id="namedview1"
     pagecolor="#ffffff"
     bordercolor="#000000"
     borderopacity="0.25"
     inkscape:showpageshadow="2"
     inkscape:pageopacity="0.0"
     inkscape:pagecheckerboard="0"
     inkscape:deskcolor="#d1d1d1"
     inkscape:document-units="mm" /><defs
     id="defs1" /><g
     inkscape:label="Camada 1"
     inkscape:groupmode="layer"
     id="layer1"
     transform="translate(-81.582102,-125.41813)"><g
       id="g12"><path
         d="m 156.42921,142.39906 c -0.69349,0.0192 -1.40761,0.20025 -2.09703,0.56482 -3.22562,1.70575 -3.00385,6.34548 0.37672,7.88066 1.36693,0.62076 2.12956,0.62248 3.48093,0.009 1.98454,-0.90144 3.06186,-2.85755 2.66547,-4.83949 -0.45463,-2.27316 -2.34563,-3.67247 -4.42609,-3.61477 z"
         style="fill:#dc3545;fill-opacity:1"
         id="path10" /><path
         d="m 130.34657,149.22707 c -1.88974,-0.007 -3.75471,0.11809 -4.97593,0.37879 -5.02628,1.07295 -8.86115,3.0997 -12.5305,6.62233 -3.3123,3.17987 -5.45708,6.69268 -6.82956,11.18588 -0.65054,2.12972 -0.71039,2.70315 -0.71416,6.82284 -0.003,3.79284 0.0844,4.81741 0.56172,6.535 2.57503,9.26698 9.89787,16.22324 19.28047,18.31516 1.32397,0.29519 2.90011,0.38061 5.78828,0.31368 3.35027,-0.0777 4.33131,-0.20084 6.29419,-0.78962 10.09567,-3.02824 17.09763,-11.43116 18.16117,-21.79453 1.30736,-12.7391 -7.3872,-24.60324 -19.91145,-27.17095 -1.32017,-0.27066 -3.23449,-0.41117 -5.12423,-0.41858 z m -0.99633,8.84597 c 1.29365,-0.078 2.61986,0.003 3.9579,0.26407 8.60303,1.67555 14.50728,9.99014 13.09533,18.44125 -0.44825,2.68294 -1.14006,4.41922 -2.67478,6.7138 -3.3958,5.07716 -9.67602,7.87343 -15.71221,6.99544 -3.59687,-0.52319 -6.38306,-1.96265 -9.14467,-4.72426 -2.86288,-2.86289 -4.18277,-5.47966 -4.72322,-9.36532 -1.31001,-9.41858 6.14612,-17.77882 15.20165,-18.32498 z"
         style="fill:#dc3545;fill-opacity:1"
         id="path9" /><path
         d="m 130.26078,125.41818 c -11.15386,2.7e-4 -22.3061,0.0934 -23.81456,0.27854 -11.244848,1.38127 -20.540229,9.29481 -23.644556,20.13004 -1.123939,3.92294 -1.219564,6.13675 -1.219564,28.27786 0,22.14111 0.09557,24.3544 1.219564,28.27734 3.054727,10.6621 12.366421,18.71211 23.254396,20.10265 2.6769,0.34188 45.25952,0.36745 48.02859,0.0289 v 5.2e-4 c 3.13187,-0.3829 5.80738,-1.15433 8.6248,-2.48719 3.31234,-1.56701 5.41068,-3.03718 7.92561,-5.55212 4.43267,-4.43266 7.16524,-9.92576 8.03,-16.1432 0.38851,-2.79324 0.38851,-45.66012 0,-48.45337 -0.86476,-6.21743 -3.59733,-11.71054 -8.03,-16.1432 -4.50832,-4.50833 -10.17213,-7.2595 -16.55041,-8.0393 -1.5149,-0.18522 -12.67,-0.27777 -23.82387,-0.27751 z m 0.005,9.39581 c 22.33158,0 24.06066,0.0323 25.66459,0.48059 5.29959,1.48114 9.66181,5.04247 12.01425,9.80819 1.96941,3.98974 1.87637,2.54114 1.87637,29.26643 0,26.6639 0.0905,25.22313 -1.83399,29.13672 -1.87257,3.80804 -4.60662,6.52895 -8.48476,8.4429 -4.19373,2.0697 -2.56772,1.95377 -28.17812,2.00556 -12.58755,0.0255 -23.64177,-0.0539 -24.56491,-0.17673 -7.282799,-0.96836 -13.316992,-6.29294 -15.439369,-13.62346 l -0.609266,-2.10478 V 174.3692 c 0,-26.34457 -0.08698,-24.95989 1.821078,-28.97187 1.819678,-3.82611 4.701919,-6.76209 8.520407,-8.67906 3.99345,-2.0048 2.45073,-1.90428 29.21372,-1.90428 z"
         style="fill:#dc3545;fill-opacity:1"
         id="path8" /></g></g></svg>
