<?xml version="1.0" encoding="UTF-8" standalone="no"?>
<!-- Created with Inkscape (http://www.inkscape.org/) -->

<svg
   width="189.65036mm"
   height="200mm"
   viewBox="0 0 189.65036 200"
   version="1.1"
   id="svg1"
   inkscape:version="1.3.2 (091e20e, 2023-11-25, custom)"
   sodipodi:docname="logo.svg"
   xml:space="preserve"
   xmlns:inkscape="http://www.inkscape.org/namespaces/inkscape"
   xmlns:sodipodi="http://sodipodi.sourceforge.net/DTD/sodipodi-0.dtd"
   xmlns="http://www.w3.org/2000/svg"
   xmlns:svg="http://www.w3.org/2000/svg"><sodipodi:namedview
     id="namedview1"
     pagecolor="#ffffff"
     bordercolor="#000000"
     borderopacity="0.25"
     inkscape:showpageshadow="2"
     inkscape:pageopacity="0.0"
     inkscape:pagecheckerboard="0"
     inkscape:deskcolor="#d1d1d1"
     inkscape:document-units="mm"
     inkscape:zoom="2"
     inkscape:cx="576.75"
     inkscape:cy="596.75"
     inkscape:window-width="1920"
     inkscape:window-height="1009"
     inkscape:window-x="-8"
     inkscape:window-y="-8"
     inkscape:window-maximized="1"
     inkscape:current-layer="layer1"
     showguides="true" /><defs
     id="defs1" /><g
     inkscape:label="Camada 1"
     inkscape:groupmode="layer"
     id="layer1"
     transform="translate(-10.174814,-48.499999)"><g
       id="g44"
       transform="matrix(3.334387,0,0,3.334387,-245.11064,-346.65647)"
       inkscape:export-filename="logo.svg"
       inkscape:export-xdpi="96"
       inkscape:export-ydpi="96"><g
         id="g5"
         transform="matrix(5.1418704,0,0,5.1418704,-178.35127,-377.00044)"><path
           d="m 54.255603,102.20358 c 0.436194,0 0.424513,0.063 0.243396,0.73897 l -0.658874,2.27377 c -0.169759,0.53739 -0.467303,0.7245 -1.021127,0.7245 h 3.10472 l 0.33538,-1.05885 c -0.07958,0.21784 -0.268601,0.51684 -0.732255,0.75551 -0.15434,0.0661 -0.363057,0.0992 -0.625801,0.0992 H 54.54034 c -0.110245,0 -0.18116,-0.0138 -0.21239,-0.0413 -0.04961,-0.0404 -0.07441,-0.0825 -0.07441,-0.12661 0,-0.0661 0.0248,-0.18392 0.07441,-0.35295 l 0.647506,-2.23501 c 0.197559,-0.65189 0.434299,-0.77721 0.820621,-0.77721 z"
           style="font-style:italic;font-size:5.64444px;font-family:'Times New Roman';-inkscape-font-specification:'Times New Roman, Italic';stroke-width:0.1;stroke-linecap:round"
           id="path2" /><path
           d="m 53.297522,101.0574 c 0.23701,0.0134 0.402046,0.0709 0.345715,0.28112 l -0.813387,2.78639 c -0.0643,0.22049 -0.125685,0.36385 -0.184485,0.42995 -0.180325,0.20498 -0.232539,0.23978 -0.542602,0.23978 h 1.349272 c -0.579773,0 -0.61619,-0.17759 -0.393258,-0.72761 l 0.667143,-2.31252 0.349849,3.04013 h 0.110071 l 2.180229,-3.04013 -0.617534,2.16628 c -0.185607,0.61701 -0.06896,0.87385 -0.800468,0.87385 h 1.658814 c -0.469197,0 -0.6283,-0.1499 -0.433566,-0.66973 l 0.691431,-2.3704 c 0.0588,-0.20395 0.113171,-0.34171 0.162781,-0.41341 0.168963,-0.23548 0.187135,-0.27745 0.412378,-0.2837 h -0.806669 l -2.16886,3.00963 -0.344682,-3.00963 z"
           style="font-style:italic;font-size:5.64444px;font-family:'Times New Roman';-inkscape-font-specification:'Times New Roman, Italic';fill:#dc3545;fill-opacity:1;stroke-width:0.1;stroke-linecap:round"
           id="path3" /></g><g
         id="g25"
         transform="translate(23.210686,-14.18764)"
         style="fill:#ff0000"><path
           id="path25"
           style="display:inline;vector-effect:non-scaling-stroke;fill:none;fill-opacity:1;stroke:#000000;stroke-width:0.264583;stroke-linecap:round;stroke-dasharray:none;stroke-opacity:1;-inkscape-stroke:hairline"
           d="m 80.20234,151.08587 -1.32085,1.28622 z m 49.53806,0.047 1.32137,1.28623 z m -46.104161,1.28106 -2.390035,2.32699 z m 42.670261,0.047 2.39055,2.32699 z m -41.362331,3.37344 -1.32085,1.28622 z m 40.054401,0.0475 1.32137,1.28622 z m -35.246426,4.75785 -1.320849,1.28622 z m 30.438456,0.047 1.32136,1.28623 z m -27.004557,1.28106 -2.390035,2.32699 z m 23.570657,0.047 2.39055,2.32699 z m -22.262726,3.37343 -1.32085,1.28623 z m 20.954796,0.0476 1.32136,1.28622 z m -17.532266,1.25573 -2.390035,2.32699 z m 14.109736,0.047 2.39055,2.32699 z m -12.77235,3.40083 -1.321366,1.28622 z m 11.43496,0.047 1.32137,1.28623 z m -8.00106,1.28106 -2.39055,2.32699 z m 4.56716,0.047 2.39055,2.32699 z m -3.25923,3.37343 -1.32137,1.28623 z m 1.9513,0.047 1.32137,1.28622 z"
           transform="translate(-23.210685,14.18764)" /><path
           id="path18"
           style="display:inline;vector-effect:non-scaling-stroke;fill:none;fill-opacity:1;stroke:#000000;stroke-width:0.264583;stroke-linecap:round;stroke-dasharray:none;stroke-opacity:1;-inkscape-stroke:hairline"
           d="m 58.077592,159.51429 -4.726843,4.72685 28.436507,28.43702 28.440624,-28.43702 -4.72736,-4.72685 -23.711214,23.71174 z"
           sodipodi:nodetypes="ccccccc" /><path
           id="path20"
           style="display:inline;vector-effect:non-scaling-stroke;fill:#c32f3d;fill-opacity:1;stroke:none;stroke-width:0.264583;stroke-linecap:round;stroke-dasharray:none;stroke-opacity:1;-inkscape-stroke:hairline"
           d="m 81.799151,132.69712 c -2.456721,0 -4.448304,1.9916 -4.448308,4.44831 0.0037,0.76923 0.2069,1.52434 0.589628,2.1916 l -0.02067,-0.0176 -18.835026,39.09218 c 1.393763,-1.47549 1.786401,-1.1084 2.480469,-1.80247 l 9.574609,-19.11615 c 2.869085,-5.58637 3.456853,-2.47572 5.655469,-6.28385 l 5.001245,-8.57157 5.003312,8.57467 c 2.198623,3.80812 2.786377,0.69749 5.655469,6.28386 l 9.574612,19.11614 c 0.69407,0.69406 1.0867,0.32698 2.48047,1.80247 L 85.675917,139.32307 c 0.362562,-0.644 0.571541,-1.38594 0.571541,-2.17764 -4e-6,-2.45671 -1.991584,-4.44831 -4.448307,-4.44831 z m 0,1.25161 a 3.1971517,3.1971517 0 0 1 3.197221,3.1967 3.1971517,3.1971517 0 0 1 -3.197221,3.19722 3.1971517,3.1971517 0 0 1 -3.197221,-3.19722 3.1971517,3.1971517 0 0 1 3.197221,-3.1967 z" /></g></g></g></svg>
