<?xml version="1.0" encoding="UTF-8" standalone="no"?>
<!-- Created with Inkscape (http://www.inkscape.org/) -->

<svg
   width="9.2533274mm"
   height="8.4666662mm"
   viewBox="0 0 9.2533274 8.4666662"
   version="1.1"
   id="svg1"
   inkscape:version="1.3.2 (091e20e, 2023-11-25, custom)"
   sodipodi:docname="logo.svg"
   xml:space="preserve"
   xmlns:inkscape="http://www.inkscape.org/namespaces/inkscape"
   xmlns:sodipodi="http://sodipodi.sourceforge.net/DTD/sodipodi-0.dtd"
   xmlns="http://www.w3.org/2000/svg"
   xmlns:svg="http://www.w3.org/2000/svg"><sodipodi:namedview
     id="namedview1"
     pagecolor="#ffffff"
     bordercolor="#000000"
     borderopacity="0.25"
     inkscape:showpageshadow="2"
     inkscape:pageopacity="0.0"
     inkscape:pagecheckerboard="0"
     inkscape:deskcolor="#d1d1d1"
     inkscape:document-units="mm"
     inkscape:zoom="2"
     inkscape:cx="576.75"
     inkscape:cy="596.75"
     inkscape:window-width="1920"
     inkscape:window-height="1009"
     inkscape:window-x="-8"
     inkscape:window-y="-8"
     inkscape:window-maximized="1"
     inkscape:current-layer="layer1"
     showguides="true" /><defs
     id="defs1" /><g
     inkscape:label="Camada 1"
     inkscape:groupmode="layer"
     id="layer1"
     transform="translate(-133.3419,-153.01042)"><g
       style="fill:none"
       id="g1"
       transform="matrix(0.26458333,0,0,0.26458333,133.33481,153.01042)"><path
         d="M 7.85581,0 C 9.40889,0.0878075 10.4903,0.464545 10.1212,1.84207 L 4.79124,20.1007 C 4.36989,21.5456 3.96766,22.485 3.58236,22.9181 2.40073,24.2613 2.05857,24.4894 0.0267944,24.4894 H 8.86829 c -3.79914,0 -4.03777,-1.1637 -2.57694,-4.7679 L 10.663,4.56799 12.9555,24.4894 h 0.7213 L 27.9634,4.56799 23.9168,18.7632 c -1.2162,4.0431 -0.4519,5.7262 -5.2453,5.7262 h 10.8699 c -3.0746,0 -4.1172,-0.9823 -2.8411,-4.3887 L 31.2311,4.56799 C 31.6164,3.23155 31.9727,2.32886 32.2978,1.85902 33.405,0.31597 33.524,0.040955 35,0 H 29.7141 L 15.502,19.7215 13.2433,0 Z"
         fill="#dc3545"
         id="path1" /><path
         d="m 14.1339,7.51064 c 2.8583,0 2.7818,0.41281 1.595,4.84236 L 11.4114,27.2525 C 10.299,30.7739 8.34922,32 4.72012,32 H 25.0647 l 2.1977,-6.9384 c -0.5215,1.4275 -1.7601,3.3867 -4.7983,4.9507 -1.0114,0.4331 -2.379,0.65 -4.1007,0.65 h -2.3637 c -0.7224,0 -1.1871,-0.0904 -1.3917,-0.2706 -0.3251,-0.2647 -0.4876,-0.5406 -0.4876,-0.8297 0,-0.4331 0.1625,-1.2052 0.4876,-2.3128 l 4.243,-14.6455 c 1.2945,-4.27173 2.8458,-5.09296 5.3773,-5.09296 z"
         fill="#ffffff"
         id="path2"
         style="fill:#222222;fill-opacity:1" /></g></g></svg>
