<svg width="30" height="32" viewBox="0 0 30 32" fill="none" xmlns="http://www.w3.org/2000/svg">
<path d="M9.18195 15.6763C9.9742 15.7211 10.5259 15.9133 10.3376 16.616L7.61867 25.93C7.40374 26.667 7.19855 27.1463 7.00201 27.3672C6.39924 28.0524 6.2247 28.1687 5.18826 28.1687H9.69843C7.76044 28.1687 7.63871 27.5751 8.3839 25.7365L10.6139 18.0065L11.7834 28.1687H12.1513L19.4391 18.0065L17.3749 25.2477C16.7545 27.3102 17.1444 28.1687 14.6992 28.1687H20.244C18.6757 28.1687 18.1438 27.6676 18.7948 25.93L21.106 18.0065C21.3026 17.3248 21.4843 16.8643 21.6501 16.6247C22.2149 15.8375 22.2757 15.6972 23.0286 15.6763H20.3321L13.0824 25.7365L11.9302 15.6763H9.18195Z" fill="#DC3545"/>
<path d="M12.3845 19.5076C13.8426 19.5076 13.8035 19.7182 13.1981 21.9778L10.9957 29.5782C10.4283 31.3745 9.43365 32 7.5824 32H17.9605L19.0815 28.4606C18.8155 29.1888 18.1837 30.1882 16.6338 30.986C16.1179 31.207 15.4203 31.3176 14.542 31.3176H13.3363C12.9678 31.3176 12.7307 31.2715 12.6263 31.1796C12.4605 31.0445 12.3776 30.9038 12.3776 30.7564C12.3776 30.5354 12.4605 30.1416 12.6263 29.5766L14.7907 22.1057C15.4511 19.9266 16.2425 19.5077 17.5338 19.5077L12.3845 19.5076Z" fill="white"/>
<path d="M17.2775 4.46648L17.3055 4.52452L27.2058 25.0729L22.6102 15.8977L22.6102 15.8976L22.6079 15.8931C22.1319 14.9662 21.7359 14.3706 21.3762 13.9668C21.0055 13.5506 20.6841 13.3503 20.388 13.1998C20.317 13.1637 20.2537 13.133 20.1956 13.1048C20.0105 13.0149 19.8777 12.9505 19.7164 12.8199C19.5137 12.6558 19.2583 12.3731 18.9196 11.7865L18.9185 11.7845L15.6659 6.21022L15.2341 5.47031C15.2346 5.47031 15.2352 5.47031 15.2357 5.47031L17.2775 4.46648ZM17.2775 4.46648C17.2102 4.55377 17.1372 4.63683 17.059 4.7151C16.8195 4.95453 16.5353 5.14446 16.2224 5.27404C15.9096 5.40362 15.5743 5.47031 15.2357 5.47031L17.2775 4.46648ZM7.85914 15.8956L3.26438 25.0693L13.1642 4.52215L12.8159 4.35431L13.0098 4.19331C13.1209 4.38334 13.2561 4.55877 13.4124 4.7151C13.6519 4.95453 13.9361 5.14446 14.2489 5.27404C14.5612 5.40339 14.8959 5.47008 15.2339 5.47031L14.8021 6.21023L11.5509 11.7825L11.5497 11.7845C11.2111 12.3711 10.9557 12.6538 10.753 12.8179C10.5917 12.9485 10.4589 13.0129 10.2738 13.1028C10.2156 13.131 10.1523 13.1617 10.0814 13.1978C9.78526 13.3483 9.46383 13.5486 9.09315 13.9648C8.7335 14.3686 8.33751 14.9642 7.86143 15.8911L7.86141 15.8911L7.85914 15.8956Z" fill="#C32F3D" stroke="white"/>
</svg>
