<svg width="35" height="32" viewBox="0 0 35 32" fill="none" xmlns="http://www.w3.org/2000/svg">
<path d="M7.85581 0C9.40889 0.0878075 10.4903 0.464545 10.1212 1.84207L4.79124 20.1007C4.36989 21.5456 3.96766 22.485 3.58236 22.9181C2.40073 24.2613 2.05857 24.4894 0.0267944 24.4894H8.86829C5.06915 24.4894 4.83052 23.3257 6.29135 19.7215L10.663 4.56799L12.9555 24.4894H13.6768L27.9634 4.56799L23.9168 18.7632C22.7006 22.8063 23.4649 24.4894 18.6715 24.4894H29.5414C26.4668 24.4894 25.4242 23.5071 26.7003 20.1007L31.2311 4.56799C31.6164 3.23155 31.9727 2.32886 32.2978 1.85902C33.405 0.31597 33.524 0.040955 35 0H29.7141L15.502 19.7215L13.2433 0H7.85581Z" fill="#DC3545"/>
<path d="M14.1339 7.51064C16.9922 7.51064 16.9157 7.92345 15.7289 12.353L11.4114 27.2525C10.299 30.7739 8.34922 32 4.72012 32H25.0647L27.2624 25.0616C26.7409 26.4891 25.5023 28.4483 22.4641 30.0123C21.4527 30.4454 20.0851 30.6623 18.3634 30.6623H15.9997C15.2773 30.6623 14.8126 30.5719 14.608 30.3917C14.2829 30.127 14.1204 29.8511 14.1204 29.562C14.1204 29.1289 14.2829 28.3568 14.608 27.2492L18.851 12.6037C20.1455 8.33197 21.6968 7.51074 24.2283 7.51074L14.1339 7.51064Z" fill="white"/>
</svg>
