<?xml version="1.0" encoding="UTF-8" standalone="no"?>
<!-- Created with Inkscape (http://www.inkscape.org/) -->

<svg
   width="33.727623mm"
   height="31.999969mm"
   viewBox="0 0 33.727623 31.999969"
   version="1.1"
   id="svg1"
   xml:space="preserve"
   xmlns:inkscape="http://www.inkscape.org/namespaces/inkscape"
   xmlns:sodipodi="http://sodipodi.sourceforge.net/DTD/sodipodi-0.dtd"
   xmlns="http://www.w3.org/2000/svg"
   xmlns:svg="http://www.w3.org/2000/svg"><sodipodi:namedview
     id="namedview1"
     pagecolor="#ffffff"
     bordercolor="#000000"
     borderopacity="0.25"
     inkscape:showpageshadow="2"
     inkscape:pageopacity="0.0"
     inkscape:pagecheckerboard="0"
     inkscape:deskcolor="#d1d1d1"
     inkscape:document-units="mm" /><defs
     id="defs1" /><g
     inkscape:label="Camada 1"
     inkscape:groupmode="layer"
     id="layer1"
     transform="translate(-88.711832,-67.656775)"><path
       style="fill:#dc3545;fill-opacity:1;stroke-width:0.211874"
       d="m 88.735427,99.636402 c 0.01009,-0.0163 2.9842,-3.20744 6.609128,-7.09137 3.624928,-3.88392 6.590955,-7.07519 6.591175,-7.09169 3.6e-4,-0.0267 -1.10982,-1.52301 -5.093508,-6.86516 -0.643769,-0.86329 -2.701385,-3.62248 -4.572479,-6.13152 -1.871094,-2.50904 -3.437072,-4.61543 -3.479952,-4.68086 l -0.07796,-0.11898 4.883035,0.028 4.883035,0.028 4.438199,5.91415 c 2.441,3.25278 4.4662,5.91415 4.50044,5.91415 0.0342,0 2.44998,-2.56046 5.36832,-5.68992 2.91834,-3.12945 5.42364,-5.80343 5.56734,-5.94217 l 0.26126,-0.25226 1.30803,0.028 1.30802,0.028 -2.81638,3.02714 c -2.67383,2.87393 -4.178,4.48947 -8.06046,8.65725 -0.97073,1.04206 -1.6817,1.84935 -1.66561,1.89126 0.0154,0.0402 1.39921,1.89603 3.07507,4.12403 4.08993,5.43745 10.65988,14.19065 10.67731,14.22549 0.008,0.0154 -2.22326,0.0154 -4.95772,0 l -4.97175,-0.028 -2.89043,-3.87693 c -1.58974,-2.13231 -3.68122,-4.93873 -4.64774,-6.23648 -0.96652,-1.29775 -1.77822,-2.35955 -1.80379,-2.35955 -0.0256,0 -0.11771,0.0848 -0.20474,0.1884 -0.087,0.10361 -0.66276,0.72849 -1.27941,1.38861 -0.61664,0.66012 -3.144886,3.37354 -5.618329,6.02983 -2.473444,2.65629 -4.52213,4.84504 -4.552636,4.86389 -0.06798,0.042 -2.803163,0.0702 -2.777464,0.0286 z m 29.569703,-2.21127 c 0,-0.0147 -3.17053,-4.25898 -7.04562,-9.4318 -3.8751,-5.17283 -8.54178,-11.40432 -10.37041,-13.84776 l -3.324788,-4.44262 H 95.2749 c -1.259176,0 -2.30469,0.0153 -2.323364,0.034 -0.01867,0.0187 1.383483,1.91688 3.115905,4.21824 1.732421,2.30136 3.894031,5.17262 4.803579,6.38058 2.7367,3.6346 9.33821,12.40461 11.02723,14.6495 0.8699,1.1562 1.64673,2.18417 1.72629,2.28437 l 0.14465,0.18219 h 2.26797 c 1.24739,0 2.26797,-0.012 2.26797,-0.0267 z"
       id="path3" /></g></svg>
